{
  "accessors": [
    {
      "bufferView": 2,
      "componentType": 5126,
      "count": 48535,
      "max": [
        0.9589673280715942,
        3.7579126358032227,
        0.49209487438201904
      ],
      "min": [
        -0.9789794683456421,
        -0.0013165652053430676,
        -0.5816384553909302
      ],
      "type": "VEC3"
    },
    {
      "bufferView": 2,
      "byteOffset": 582420,
      "componentType": 5126,
      "count": 48535,
      "max": [
        0.9999984502792358,
        1.0,
        0.9999985098838806
      ],
      "min": [
        -0.9999984502792358,
        -1.0,
        -0.9999969005584717
      ],
      "type": "VEC3"
    },
    {
      "bufferView": 1,
      "componentType": 5126,
      "count": 48535,
      "max": [
        1.0,
        1.0
      ],
      "min": [
        0.0,
        0.0
      ],
      "type": "VEC2"
    },
    {
      "bufferView": 0,
      "componentType": 5125,
      "count": 51024,
      "type": "SCALAR"
    },
    {
      "bufferView": 2,
      "byteOffset": 1164840,
      "componentType": 5126,
      "count": 146,
      "max": [
        0.7493889331817627,
        0.0,
        0.4869465231895447
      ],
      "min": [
        -0.6719565391540527,
        0.0,
        -0.40989863872528076
      ],
      "type": "VEC3"
    },
    {
      "bufferView": 2,
      "byteOffset": 1166592,
      "componentType": 5126,
      "count": 146,
      "max": [
        0.0,
        -1.0,
        0.0
      ],
      "min": [
        0.0,
        -1.0,
        0.0
      ],
      "type": "VEC3"
    },
    {
      "bufferView": 1,
      "byteOffset": 388280,
      "componentType": 5126,
      "count": 146,
      "max": [
        0.8746944665908813,
        0.0
      ],
      "min": [
        0.16402173042297363,
        0.0
      ],
      "type": "VEC2"
    },
    {
      "bufferView": 0,
      "byteOffset": 204096,
      "componentType": 5125,
      "count": 432,
      "type": "SCALAR"
    }
  ],
  "asset": {
    "extras": {
      "author": "FukcedupBunny (https://sketchfab.com/Fukcedupbunny)",
      "license": "CC-BY-4.0 (http://creativecommons.org/licenses/by/4.0/)",
      "source": "https://sketchfab.com/3d-models/lakshmigoddess-of-weath-3d-scan-9039f9008f394063b22d6373c9029a4d",
      "title": "Lakshmi(Goddess Of Weath) 3D scan"
    },
    "generator": "Sketchfab-14.25.0",
    "version": "2.0"
  },
  "bufferViews": [
    {
      "buffer": 0,
      "byteLength": 205824,
      "name": "floatBufferViews",
      "target": 34963
    },
    {
      "buffer": 0,
      "byteLength": 389448,
      "byteOffset": 205824,
      "byteStride": 8,
      "name": "floatBufferViews",
      "target": 34962
    },
    {
      "buffer": 0,
      "byteLength": 1168344,
      "byteOffset": 595272,
      "byteStride": 12,
      "name": "floatBufferViews",
      "target": 34962
    }
  ],
  "buffers": [
    {
      "byteLength": 1763616,
      "uri": "ene.bin"
    }
  ],
  "images": [
    {
      "uri": "textures/3DModel_LowPoly_baseColor.jpeg"
    }
  ],
  "materials": [
    {
      "doubleSided": true,
      "name": "3DModel_LowPoly",
      "pbrMetallicRoughness": {
        "baseColorTexture": {
          "index": 0
        },
        "metallicFactor": 0.0
      }
    },
    {
      "doubleSided": true,
      "name": "Material.001",
      "pbrMetallicRoughness": {
        "baseColorFactor": [
          0.0331025,
          0.0331025,
          0.0331025,
          1.0
        ],
        "metallicFactor": 0.0,
        "roughnessFactor": 0.9916143322181376
      }
    }
  ],
  "meshes": [
    {
      "name": "3DModel_LowPoly_3DModel_LowPoly_0",
      "primitives": [
        {
          "attributes": {
            "NORMAL": 1,
            "POSITION": 0,
            "TEXCOORD_0": 2
          },
          "indices": 3,
          "material": 0,
          "mode": 4
        }
      ]
    },
    {
      "name": "3DModel_LowPoly_Material.001_0",
      "primitives": [
        {
          "attributes": {
            "NORMAL": 5,
            "POSITION": 4,
            "TEXCOORD_0": 6
          },
          "indices": 7,
          "material": 1,
          "mode": 4
        }
      ]
    }
  ],
  "nodes": [
    {
      "children": [
        1
      ],
      "matrix": [
        1.0,
        0.0,
        0.0,
        0.0,
        0.0,
        2.220446049250313e-16,
        -1.0,
        0.0,
        0.0,
        1.0,
        2.220446049250313e-16,
        0.0,
        0.0,
        0.0,
        0.0,
        1.0
      ],
      "name": "Sketchfab_model"
    },
    {
      "children": [
        2
      ],
      "matrix": [
        0.009999999776482582,
        0.0,
        0.0,
        0.0,
        0.0,
        0.0,
        0.009999999776482582,
        0.0,
        0.0,
        -0.009999999776482582,
        0.0,
        0.0,
        0.0,
        0.0,
        0.0,
        1.0
      ],
      "name": "0b714d2d98234e6fa7d0c94e4b217ddf.fbx"
    },
    {
      "children": [
        3
      ],
      "name": "RootNode"
    },
    {
      "children": [
        4,
        5
      ],
      "matrix": [
        100.0,
        0.0,
        0.0,
        0.0,
        0.0,
        99.99999999999866,
        1.6292067073209114e-05,
        0.0,
        0.0,
        -1.6292067073209114e-05,
        99.99999999999866,
        0.0,
        0.0,
        0.0,
        0.0,
        1.0
      ],
      "name": "3DModel_LowPoly"
    },
    {
      "mesh": 0,
      "name": "3DModel_LowPoly_3DModel_LowPoly_0"
    },
    {
      "mesh": 1,
      "name": "3DModel_LowPoly_Material.001_0"
    }
  ],
  "samplers": [
    {
      "magFilter": 9729,
      "minFilter": 9987,
      "wrapS": 10497,
      "wrapT": 10497
    }
  ],
  "scene": 0,
  "scenes": [
    {
      "name": "Sketchfab_Scene",
      "nodes": [
        0
      ]
    }
  ],
  "textures": [
    {
      "sampler": 0,
      "source": 0
    }
  ]
}
